<?xml version="1.0" standalone="no"?>
<!DOCTYPE svg PUBLIC "-//W3C//DTD SVG 20010904//EN"
 "http://www.w3.org/TR/2001/REC-SVG-20010904/DTD/svg10.dtd">
<svg version="1.0" xmlns="http://www.w3.org/2000/svg"
 width="500.000000pt" height="500.000000pt" viewBox="0 0 500.000000 500.000000"
 preserveAspectRatio="xMidYMid meet">
<metadata>
Created by potrace 1.14, written by Peter Selinger 2001-2017
</metadata>
<g transform="translate(0.000000,500.000000) scale(0.100000,-0.100000)"
fill="#000000" stroke="none">
<path d="M1472 3401 c-113 -39 -143 -97 -152 -296 -5 -121 -9 -146 -29 -181
-27 -49 -66 -74 -115 -74 l-36 0 0 -74 0 -74 45 -7 c59 -8 108 -55 124 -118 6
-25 11 -90 11 -145 0 -218 73 -303 264 -306 l61 -1 3 68 3 67 -28 0 c-52 0
-103 20 -121 48 -13 20 -18 57 -23 162 -4 111 -9 142 -26 176 -21 39 -85 105
-114 117 -11 5 -10 8 4 17 43 27 90 76 109 114 18 34 23 65 27 176 8 179 27
210 132 210 l39 0 0 70 0 70 -62 0 c-35 -1 -87 -9 -116 -19z"/>
<path d="M3350 3350 l0 -70 39 0 c105 0 124 -31 132 -210 4 -111 9 -142 27
-176 19 -38 66 -87 109 -114 14 -9 15 -12 4 -17 -29 -12 -93 -78 -114 -117
-17 -34 -22 -65 -26 -176 -5 -105 -10 -142 -23 -162 -18 -28 -69 -48 -121 -48
l-28 0 3 -67 3 -68 67 1 c120 3 190 40 229 121 19 39 24 70 29 188 9 192 37
245 139 261 l41 7 0 73 0 74 -36 0 c-48 0 -87 25 -115 73 -19 34 -23 61 -29
181 -7 159 -24 212 -79 259 -41 34 -118 57 -193 57 l-58 0 0 -70z"/>
<path d="M2653 1920 c-37 -15 -43 -42 -43 -199 0 -138 2 -153 20 -171 11 -11
32 -20 48 -20 15 0 36 -7 46 -15 11 -8 26 -15 33 -15 13 0 18 41 6 54 -4 3 -5
75 -4 160 2 148 2 154 -21 179 -27 30 -55 39 -85 27z m45 -190 c3 -132 -6
-175 -28 -140 -11 17 -14 263 -3 274 21 21 28 -10 31 -134z"/>
<path d="M2870 1754 c0 -199 8 -224 75 -224 67 0 75 25 75 224 l0 166 -30 0
-30 0 -2 -167 c-4 -223 -22 -221 -26 2 l-2 165 -30 0 -30 0 0 -166z"/>
<path d="M3130 1725 l0 -195 30 0 30 0 0 195 0 195 -30 0 -30 0 0 -195z"/>
<path d="M3300 1890 c0 -28 3 -30 35 -30 19 0 35 -4 35 -8 0 -4 -18 -62 -40
-127 -22 -65 -40 -136 -40 -157 l0 -38 75 0 75 0 0 30 c0 29 -2 30 -45 30 -25
0 -45 2 -45 4 0 2 20 67 45 144 61 188 62 182 -25 182 l-70 0 0 -30z"/>
</g>
</svg>
